# xmcd CD database file
#
# Track frame offsets:
#	183
#	18065
#	37703
#	53143
#	70305
#	84835
#	99413
#	115920
#	129858
#	145333
#	162553
#	178458
#	192745
#	208148
#	224700
#	244340
#	259218
#	275740
#
# Disc length: 3890 seconds
#
# Revision: 2
# Processed by: cddbd v1.4b41PL1 Copyright (c) Steve Scherf et al.
# Submitted via: Feurio! 1.50.2ß - http://www.feurio.com
#
DISCID=150f3012
DTITLE=Various Artist - Die Deutsche Schlager Parade
DYEAR=1900
DGENRE=
TTITLE0=Jule Neigel Band - Schatten An Der Wand
TTITLE1=Drafi Deutscher - Diesaml Für Immer
TTITLE2=Klaus Lage - Die Liebe Bleibt
TTITLE3=Nicole - Mit Dir Vielleicht
TTITLE4=Die Flippers - Hasta La Vista
TTITLE5=Daliah Lavi - Liebeslied Jener Sommernacht
TTITLE6=Matthias Reim - Verdammt, Ich Lieb Dich
TTITLE7=Duo California - Gitarren Klingen Leise Durch Die Nacht
TTITLE8=Andy Borg - Ich Brauch` Dich Jeden Tag
TTITLE9=Roy Black - California Blue
TTITLE10=Rex Gildo - Andrea
TTITLE11=Spider Murphy Gang - Ich Grüße Alle Und Den Rest Der Welt
TTITLE12=G. G. Anderson - Ich Bin So Treu Wie Gold
TTITLE13=Bläck Fööss - Männer
TTITLE14=Nicki - Doch Die Zeit Bleibt Stehn`
TTITLE15=Leinemann - Mein Tuut Tuut
TTITLE16=Klaus and Klaus - Der Eiermann
TTITLE17=Joy Fleming - Ein Lied Kann Eine Brücke Sein
EXTD=
EXTT0=
EXTT1=
EXTT2=
EXTT3=
EXTT4=
EXTT5=
EXTT6=
EXTT7=
EXTT8=
EXTT9=
EXTT10=
EXTT11=
EXTT12=
EXTT13=
EXTT14=
EXTT15=
EXTT16=
EXTT17=
PLAYORDER=
